<svg xmlns="http://www.w3.org/2000/svg" viewBox="0 0 4653 300" xmlns:v="https://vecta.io/nano"><path d="M-2 300h276v-86.5H106v-29h161.5v-69H106V86h168V0H-2zM426.5 0H319v300h263.5v-90h-156zm520 149h-10L850 0H726.5v300H832V151h9.5l89 149H1052V0H946.5zm355 10.5c0 32.5-14 53-49 53s-48.5-20.5-48.5-53V0h-105.5v162c0 95.5 50.5 138 154 138s154-43 154-139V0H1302v159.5h-.5zm152 140.5h276v-86.5H1561v-29h162v-69h-162V86h168.5V0h-276zm567-300L1954 198.5h-11.5L1875.5 0H1764l108.5 300H2024L2132.5 0zM2291 0c-98 0-160.5 59.5-160.5 150S2193 300 2291 300c98.5 0 161-59.5 161-150S2389.5 0 2291 0zm0 212.5c-32 0-60.5-22-60.5-62.5 0-41 28-62.5 60.5-62.5s60.5 22 60.5 62.5c0 41-28 62.5-60.5 62.5z" fill="#00d1cc"/><path d="M2816.5 104.5h-106V0H2603v300h107.5V195.5h106V300h108V0h-108zm153 195.5H3246v-86.5h-168.5v-29h162v-69h-162V86H3246V0h-276.5zM3592 117c0-82-48-117-132.5-117H3283v300h108v-73.5h68l38 73.5h106l-52-97c23.5-18 41-46.5 41-86zm-140 29h-60.5V89.5h60.5c21.5 0 32 10.5 32 28-.5 18-11 28.5-32 28.5zM3739 0l-108 300h111.5l11.5-36h122l11.5 36h112l-109-300H3739zm40 184.5l26.5-83h18.5l26.5 83H3779zM4139 0h-108v300h264v-90h-156zm347.5 0h-155v300h155c124 0 166.5-63.5 166.5-150 0-87-42.5-150-166.5-150zm0 209.5H4440l.5-119.5h46.5c32 0 58 14.5 58 59.5-.5 45-26.5 60-58.5 60z" fill="#31409f"/></svg>