<?xml version="1.0" standalone="no"?>
<!DOCTYPE svg PUBLIC "-//W3C//DTD SVG 20010904//EN"
 "http://www.w3.org/TR/2001/REC-SVG-20010904/DTD/svg10.dtd">
<svg version="1.0" xmlns="http://www.w3.org/2000/svg"
 width="199.000000pt" height="163.000000pt" viewBox="0 0 199.000000 163.000000"
 preserveAspectRatio="xMidYMid meet">

<g transform="translate(0.000000,163.000000) scale(0.100000,-0.100000)"
fill="#000000" stroke="none">
<path d="M726 1409 c-65 -15 -155 -70 -203 -123 -190 -210 -125 -551 127 -670
60 -29 73 -31 170 -31 101 0 108 2 170 35 36 19 68 36 73 38 4 2 7 -9 7 -25 0
-23 22 -50 114 -142 92 -91 117 -112 134 -107 26 9 92 81 92 102 0 27 -210
244 -242 251 l-27 5 23 42 c96 165 64 392 -73 521 -99 94 -238 134 -365 104z
m203 -182 c82 -41 133 -129 134 -232 1 -78 -28 -140 -90 -195 -67 -58 -146
-75 -237 -48 -55 16 -138 99 -154 154 -68 231 139 423 347 321z"/>
</g>
</svg>
