<svg viewBox="0 0 512 512" xmlns="http://www.w3.org/2000/svg"><g fill="#222"><g fill-rule="evenodd"><path d="m256 100.92a17.24 17.24 0 0 0 17.23-17.23v-34.46a17.23 17.23 0 0 0 -34.46 0v34.46a17.24 17.24 0 0 0 17.23 17.23z"/><path d="m390 146.33 24.38-24.33a17.23 17.23 0 0 0 -24.38-24.4l-24.36 24.4a17.23 17.23 0 0 0 24.36 24.33z"/><path d="m100.92 256a17.24 17.24 0 0 0 -17.23-17.23h-34.46a17.23 17.23 0 1 0 0 34.46h34.46a17.24 17.24 0 0 0 17.23-17.23z"/><path d="m462.77 238.77h-34.46a17.23 17.23 0 0 0 0 34.46h34.46a17.23 17.23 0 1 0 0-34.46z"/><path d="m122 146.33a17.23 17.23 0 0 0 24.33-24.33l-24.33-24.4a17.23 17.23 0 0 0 -24.4 24.4z"/><path d="m390 365.64a17.23 17.23 0 0 0 -24.33 24.36l24.33 24.37a17.23 17.23 0 0 0 24.4-24.37z"/></g><path d="m376.62 256a120.62 120.62 0 1 0 -240.17 16 98.07 98.07 0 0 0 -29.37 26.56 67.7 67.7 0 1 0 -8.24 134.92 67.24 67.24 0 0 0 22.44-3.85 97.25 97.25 0 0 0 117.49 8.63v24.53a17.23 17.23 0 0 0 34.46 0v-29.35a67.77 67.77 0 0 0 63.77-88.15 120.34 120.34 0 0 0 39.62-89.29zm-104 149.46a39.39 39.39 0 0 1 -13.13-2.25l-15.52-5.48-12.33 10.9a69.3 69.3 0 0 1 -91.78 0l-12.34-10.9-15.52 5.48a39.29 39.29 0 0 1 -13.12 2.25 39.72 39.72 0 1 1 4.85-79.12l16.28 2 9.69-13.23a70.76 70.76 0 0 1 14.28-14.48 69.12 69.12 0 0 1 9.9-6.27 68.18 68.18 0 0 1 21.89-7 70.2 70.2 0 0 1 10-.71 68.41 68.41 0 0 1 31.86 7.75 70.22 70.22 0 0 1 24.18 20.75l9.69 13.23 16.29-2a39.87 39.87 0 0 1 4.85-.31 39.21 39.21 0 0 1 22.23 6.88 39.73 39.73 0 0 1 17.13 29.84c.07 1 .12 2 .12 2.95a39.69 39.69 0 0 1 -39.54 39.72zm45.51-89.76a67.22 67.22 0 0 0 -45.55-17.7 67.89 67.89 0 0 0 -8.24.51 97.31 97.31 0 0 0 -94.4-38.66c-.05-1.29-.09-2.58-.09-3.88a86.15 86.15 0 1 1 148.24 59.7z"/></g></svg>